Coordinates
version=1
nRows=24
nColumns=22
inDegrees=yes

Units are S.I. units (second, meters, Newtons, ...)
If the header above contains a line with 'inDegrees', this indicates whether rotational values are in degrees (yes) or radians (no).

endheader
time	pelvis_tilt	pelvis_list	pelvis_rotation	pelvis_tx	pelvis_ty	pelvis_tz	hip_flexion_r	hip_adduction_r	hip_rotation_r	knee_angle_r	ankle_angle_r	subtalar_angle_r	hip_flexion_l	hip_adduction_l	hip_rotation_l	knee_angle_l	ankle_angle_l	subtalar_angle_l	lumbar_extension	lumbar_bending	lumbar_rotation
      0.01000000	      6.21293973	     -2.97960568	      5.88250180	      0.20421770	      0.95335426	      1.17851266	     -3.49092658	      3.30865006	     -9.88263488	    -16.20742733	      9.96043268	     -0.96310784	     -3.82063829	     -3.36098195	     -7.64968846	    -16.60218701	     21.86682208	    -10.70376662	    -11.68075944	      2.63765733	     -9.73906367
      0.02000000	      6.22802639	     -3.04609474	      5.91142981	      0.20422984	      0.95345734	      1.17896397	     -3.58627199	      3.39400900	     -9.86738436	    -16.03182489	      9.93528739	     -0.82164387	     -3.80304025	     -3.46591278	     -7.60660679	    -16.64145128	     21.87374076	    -10.72447129	    -11.72648314	      2.69960785	     -9.73950394
      0.03000000	      6.23955159	     -3.10894227	      5.93888341	      0.20425491	      0.95355805	      1.17946344	     -3.69016767	      3.46720877	     -9.94344625	    -15.82804495	     10.07915286	     -0.30562844	     -3.78002674	     -3.56948705	     -7.58145457	    -16.68635624	     21.91660855	    -10.74751859	    -11.77043943	      2.75754770	     -9.73451083
      0.04000000	      6.24404932	     -3.17869717	      5.95053973	      0.20434054	      0.95365944	      1.18002902	     -3.80218381	      3.54642568	    -10.10736383	    -15.59620687	     10.21965120	      0.38436698	     -3.78574241	     -3.67645158	     -7.55761315	    -16.66948770	     21.91439978	    -10.77893717	    -11.79599974	      2.81769504	     -9.72658660
      0.05000000	      6.25286033	     -3.23739313	      5.96890221	      0.20442651	      0.95374276	      1.18063609	     -3.95937855	      3.63516063	    -10.28941420	    -15.29392515	     10.36502836	      0.94416345	     -3.78381857	     -3.77786143	     -7.54162455	    -16.67976453	     21.92962467	    -10.80713302	    -11.82813947	      2.86053895	     -9.72083052
      0.06000000	      6.25844408	     -3.28477173	      5.98605777	      0.20451733	      0.95379277	      1.18128255	     -4.14325699	      3.73024006	    -10.47600032	    -14.94231686	     10.48108427	      1.35595057	     -3.77901679	     -3.87064601	     -7.53613671	    -16.69344189	     21.95077951	    -10.82975211	    -11.85655878	      2.88288720	     -9.72062974
      0.07000000	      6.22666801	     -3.32183064	      5.98408632	      0.20457907	      0.95375563	      1.18198558	     -4.30125287	      3.82619117	    -10.62813812	    -14.56841266	     10.60465620	      1.47368636	     -3.72524967	     -3.95249548	     -7.56478870	    -16.72710590	     21.93072226	    -10.84995701	    -11.84542846	      2.88444859	     -9.71892779
      0.08000000	      6.21558156	     -3.34911820	      5.99285471	      0.20462838	      0.95371765	      1.18268097	     -4.50878598	      3.92585678	    -10.79851792	    -14.14800845	     10.64432961	      1.62882475	     -3.69446170	     -4.02851083	     -7.58599968	    -16.75961207	     21.97185887	    -10.85864053	    -11.86316722	      2.87817899	     -9.72612155
      0.09000000	      6.22006643	     -3.36593331	      5.98200360	      0.20460981	      0.95368733	      1.18341928	     -4.72993074	      4.01989090	    -10.94242975	    -13.73115107	     10.60054179	      1.79953097	     -3.68463487	     -4.09256271	     -7.60204942	    -16.78407786	     22.01717098	    -10.85380039	    -11.91501249	      2.85317311	     -9.68308789
      0.10000000	      6.17076920	     -3.36314441	      5.94382871	      0.20455508	      0.95356687	      1.18418283	     -4.87740948	      4.08286635	    -11.04927417	    -13.34654832	     10.60750682	      1.84520512	     -3.62159521	     -4.13111378	     -7.67834627	    -16.80268597	     22.02448570	    -10.85422401	    -11.90680789	      2.80311667	     -9.67377348
      0.11000000	      6.12749058	     -3.36916257	      5.90076954	      0.20442043	      0.95344583	      1.18496302	     -5.01658660	      4.15428593	    -11.13583523	    -12.97680761	     10.57777791	      1.86726628	     -3.55236928	     -4.18320260	     -7.75317703	    -16.83785731	     22.05208465	    -10.84051253	    -11.91754981	      2.76298066	     -9.63908419
      0.12000000	      6.08001269	     -3.37851211	      5.84115129	      0.20419737	      0.95332813	      1.18574441	     -5.12359239	      4.21987638	    -11.18773720	    -12.64733085	     10.53285806	      1.87757453	     -3.47391583	     -4.23800021	     -7.84716657	    -16.87523248	     22.07802060	    -10.81051894	    -11.93708965	      2.73037892	     -9.58865096
      0.13000000	      6.02275537	     -3.39244343	      5.76253751	      0.20390407	      0.95321245	      1.18652518	     -5.18816624	      4.27804846	    -11.20718506	    -12.36803990	     10.48698231	      1.88895963	     -3.38327448	     -4.29593905	     -7.96270061	    -16.91118647	     22.09689278	    -10.76097713	    -11.95484304	      2.70602180	     -9.52339933
      0.14000000	      5.95233747	     -3.41913984	      5.66446477	      0.20355494	      0.95309930	      1.18731022	     -5.20804857	      4.34000553	    -11.18539407	    -12.13266365	     10.43213007	      1.92288148	     -3.27374985	     -4.36681171	     -8.10574225	    -16.95373545	     22.11661480	    -10.66130111	    -11.96161609	      2.69691556	     -9.42320213
      0.15000000	      5.87598813	     -3.43598520	      5.56760582	      0.20320480	      0.95300962	      1.18802928	     -5.20258779	      4.37971565	    -11.16662641	    -11.93619771	     10.40716445	      1.96858356	     -3.16923525	     -4.42308478	     -8.26387938	    -16.97339643	     22.10507014	    -10.59612957	    -11.95928780	      2.68914952	     -9.37456998
      0.16000000	      5.79245085	     -3.46975410	      5.45407068	      0.20285058	      0.95293115	      1.18873121	     -5.16777403	      4.43108456	    -11.10644380	    -11.77264526	     10.36431797	      2.04640296	     -3.06219971	     -4.49258700	     -8.42915654	    -16.98521137	     22.11037143	    -10.50543518	    -11.94528013	      2.70486196	     -9.28314790
      0.17000000	      5.71281774	     -3.50295029	      5.34861125	      0.20251305	      0.95287768	      1.18937624	     -5.12465899	      4.47912948	    -11.03591291	    -11.63448809	     10.32870982	      2.14518166	     -2.96362539	     -4.55819474	     -8.57909724	    -16.98849348	     22.10912058	    -10.41014116	    -11.93207614	      2.72841752	     -9.20775755
      0.18000000	      5.63987460	     -3.53696323	      5.25345719	      0.20222209	      0.95284033	      1.18995445	     -5.08191287	      4.52614711	    -10.95770742	    -11.51587616	     10.29335485	      2.25413515	     -2.87906550	     -4.61999036	     -8.70185486	    -16.98164537	     22.11328251	    -10.31894983	    -11.91638301	      2.76217239	     -9.14219981
      0.19000000	      5.57585600	     -3.56710138	      5.18261300	      0.20198101	      0.95281632	      1.19045468	     -5.04764428	      4.57181637	    -10.88483117	    -11.40690146	     10.26587659	      2.35884352	     -2.80673115	     -4.67419830	     -8.79100945	    -16.96866648	     22.11779817	    -10.24433144	    -11.90225036	      2.80266871	     -9.09675069
      0.20000000	      5.53807369	     -3.56806391	      5.14672206	      0.20181072	      0.95282457	      1.19083787	     -5.03738837	      4.58336295	    -10.89584628	    -11.32494644	     10.27092718	      2.38054251	     -2.77455200	     -4.68868482	     -8.81250548	    -16.93508836	     22.11963253	    -10.23312437	    -11.90874054	      2.82441943	     -9.07999663
      0.21000000	      5.48690572	     -3.60409471	      5.12596905	      0.20165301	      0.95279104	      1.19123119	     -5.01485676	      4.64871568	    -10.78201393	    -11.23114775	     10.24684152	      2.48207028	     -2.70081500	     -4.74888789	     -8.83704361	    -16.94675949	     22.13252117	    -10.18387683	    -11.89385750	      2.88190314	     -9.06710225
      0.22000000	      5.47227766	     -3.59221272	      5.12228416	      0.20153881	      0.95279936	      1.19154020	     -5.00413096	      4.65196226	    -10.78689968	    -11.21005327	     10.24928156	      2.48569171	     -2.68336254	     -4.75112324	     -8.83785906	    -16.93383338	     22.13386128	    -10.18242342	    -11.92102228	      2.89281275	     -9.06465847
      0.23000000	      5.44019969	     -3.60940644	      5.17046670	      0.20145766	      0.95275106	      1.19176998	     -5.00357608	      4.70123562	    -10.76141090	    -11.13110801	     10.27713839	      2.55276927	     -2.61792851	     -4.78635499	     -8.76420048	    -16.95893612	     22.14761586	    -10.16479850	    -11.91547369	      2.94437790	     -9.09107998
      0.24000000	      5.42219266	     -3.60421586	      5.23161554	      0.20136650	      0.95270468	      1.19195568	     -4.99053061	      4.72090635	    -10.78215125	    -11.11239331	     10.30137037	      2.60460433	     -2.56054568	     -4.79714561	     -8.68555044	    -16.99691129	     22.16337357	    -10.16432010	    -11.93406262	      2.97068465	     -9.11933770
